<svg width="400" height="352" xmlns="http://www.w3.org/2000/svg">
 <g>
  <title>Layer 1</title>
  <rect fill="none" stroke="#000000" x="947" y="337" width="0" height="1" id="svg_2"/>
  <g stroke="null" id="svg_61">
   <rect stroke="#000000" fill="none" x="0" y="1" width="400.00001" height="348.99997" id="svg_1" stroke-width="5"/>
   <g stroke="null" id="svg_40">
    <rect stroke="#000" id="svg_3" height="43.625" width="63.30276" y="34.71022" x="290.8257" fill="#fff"/>
    <rect stroke="#000" id="svg_5" height="43.625" width="63.30276" y="282.57952" x="289.90827" fill="#fff"/>
    <rect stroke="#000" id="svg_9" height="43.625" width="63.30276" y="97.17329" x="289.90827" fill="#fff"/>
    <rect stroke="#000" id="svg_13" height="43.625" width="63.30276" y="159.63635" x="289.90827" fill="#fff"/>
    <rect stroke="#000" id="svg_17" height="43.625" width="63.30276" y="221.10794" x="288.99084" fill="#fff"/>
    <rect stroke="#000" id="svg_25" height="43.625" width="63.30276" y="30.74432" x="43.11927" fill="#fff"/>
    <rect stroke="#000" id="svg_26" height="43.625" width="63.30276" y="278.61362" x="42.20184" fill="#fff"/>
    <rect stroke="#000" id="svg_27" height="43.625" width="63.30276" y="93.20738" x="42.20184" fill="#fff"/>
    <rect stroke="#000" id="svg_28" height="43.625" width="63.30276" y="155.67044" x="42.20184" fill="#fff"/>
    <rect stroke="#000" id="svg_29" height="43.625" width="63.30276" y="217.14203" x="41.28441" fill="#fff"/>
    <rect stroke="#000" id="svg_30" height="43.625" width="63.30276" y="32.72727" x="125.68808" fill="#fff"/>
    <rect stroke="#000" id="svg_31" height="43.625" width="63.30276" y="280.59657" x="124.77065" fill="#fff"/>
    <rect stroke="#000" id="svg_32" height="43.625" width="63.30276" y="95.19033" x="124.77065" fill="#fff"/>
    <rect stroke="#000" id="svg_33" height="43.625" width="63.30276" y="157.6534" x="124.77065" fill="#fff"/>
    <rect stroke="#000" id="svg_34" height="43.625" width="63.30276" y="219.12498" x="123.85322" fill="#fff"/>
    <rect stroke="#000" id="svg_35" height="43.625" width="63.30276" y="33.71875" x="204.58716" fill="#fff"/>
    <rect stroke="#000" id="svg_36" height="43.625" width="63.30276" y="281.58805" x="203.66973" fill="#fff"/>
    <rect stroke="#000" id="svg_37" height="43.625" width="63.30276" y="96.18181" x="203.66973" fill="#fff"/>
    <rect stroke="#000" id="svg_38" height="43.625" width="63.30276" y="158.64487" x="203.66973" fill="#fff"/>
    <rect stroke="#000" id="svg_39" height="43.625" width="63.30276" y="220.11646" x="202.7523" fill="#fff"/>
   </g>
   <text stroke="#000" transform="matrix(0.917431 0 0 0.991477 18.3486 1)" xml:space="preserve" text-anchor="start" font-family="Noto Sans JP" font-size="24" stroke-width="0" id="svg_41" y="59" x="54" fill="#000000">1</text>
   <text stroke="#000000" transform="matrix(0.917431 0 0 0.991477 18.3486 1)" xml:space="preserve" text-anchor="start" font-family="Noto Sans JP" font-size="24" id="svg_42" y="60" x="147" stroke-width="0" fill="#000000">2</text>
   <text stroke="#000000" transform="matrix(0.917431 0 0 0.991477 18.3486 1)" xml:space="preserve" text-anchor="start" font-family="Noto Sans JP" font-size="24" id="svg_43" y="61" x="234" stroke-width="0" fill="#000000">3</text>
   <text stroke="#000000" transform="matrix(0.917431 0 0 0.991477 18.3486 1)" xml:space="preserve" text-anchor="start" font-family="Noto Sans JP" font-size="24" id="svg_44" y="62" x="326" stroke-width="0" fill="#000000">4</text>
   <text stroke="#000000" transform="matrix(0.917431 0 0 0.991477 18.3486 1)" xml:space="preserve" text-anchor="start" font-family="Noto Sans JP" font-size="24" id="svg_45" y="124" x="54" stroke-width="0" fill="#000000">5</text>
   <text stroke="#000000" transform="matrix(0.917431 0 0 0.991477 18.3486 1)" xml:space="preserve" text-anchor="start" font-family="Noto Sans JP" font-size="24" id="svg_46" y="127" x="146" stroke-width="0" fill="#000000">6</text>
   <text stroke="#000000" transform="matrix(0.917431 0 0 0.991477 18.3486 1)" xml:space="preserve" text-anchor="start" font-family="Noto Sans JP" font-size="24" id="svg_47" y="125" x="230" stroke-width="0" fill="#000000">7</text>
   <text stroke="#000000" transform="matrix(0.917431 0 0 0.991477 18.3486 1)" xml:space="preserve" text-anchor="start" font-family="Noto Sans JP" font-size="24" id="svg_48" y="127" x="325" stroke-width="0" fill="#000000">8</text>
   <text stroke="#000000" transform="matrix(0.917431 0 0 0.991477 18.3486 1)" xml:space="preserve" text-anchor="start" font-family="Noto Sans JP" font-size="24" id="svg_49" y="186" x="55" stroke-width="0" fill="#000000">9</text>
   <text stroke="#000000" transform="matrix(0.917431 0 0 0.991477 18.3486 1)" xml:space="preserve" text-anchor="start" font-family="Noto Sans JP" font-size="24" id="svg_50" y="188" x="141" stroke-width="0" fill="#000000">10</text>
   <text stroke="#000000" transform="matrix(0.917431 0 0 0.991477 18.3486 1)" xml:space="preserve" text-anchor="start" font-family="Noto Sans JP" font-size="24" id="svg_51" y="189" x="224" stroke-width="0" fill="#000000">11</text>
   <text stroke="#000000" transform="matrix(0.917431 0 0 0.991477 18.3486 1)" xml:space="preserve" text-anchor="start" font-family="Noto Sans JP" font-size="24" id="svg_52" y="190" x="318" stroke-width="0" fill="#000000">12</text>
   <text stroke="#000000" transform="matrix(0.917431 0 0 0.991477 18.3486 1)" xml:space="preserve" text-anchor="start" font-family="Noto Sans JP" font-size="24" id="svg_53" y="249" x="46" stroke-width="0" fill="#000000">13</text>
   <text stroke="#000000" transform="matrix(0.917431 0 0 0.991477 18.3486 1)" xml:space="preserve" text-anchor="start" font-family="Noto Sans JP" font-size="24" id="svg_54" y="249" x="137" stroke-width="0" fill="#000000">14</text>
   <text stroke="#000000" transform="matrix(0.917431 0 0 0.991477 18.3486 1)" xml:space="preserve" text-anchor="start" font-family="Noto Sans JP" font-size="24" id="svg_55" y="252" x="224" stroke-width="0" fill="#000000">15</text>
   <text stroke="#000000" transform="matrix(0.917431 0 0 0.991477 18.3486 1)" xml:space="preserve" text-anchor="start" font-family="Noto Sans JP" font-size="24" id="svg_56" y="251" x="318" stroke-width="0" fill="#000000">16</text>
   <text stroke="#000000" transform="matrix(0.917431 0 0 0.991477 18.3486 1)" xml:space="preserve" text-anchor="start" font-family="Noto Sans JP" font-size="24" id="svg_57" y="310" x="48" stroke-width="0" fill="#000000">17</text>
   <text stroke="#000000" transform="matrix(0.917431 0 0 0.991477 18.3486 1)" xml:space="preserve" text-anchor="start" font-family="Noto Sans JP" font-size="24" id="svg_58" y="311" x="138" stroke-width="0" fill="#000000">18</text>
   <text stroke="#000000" transform="matrix(0.917431 0 0 0.991477 18.3486 1)" xml:space="preserve" text-anchor="start" font-family="Noto Sans JP" font-size="24" id="svg_59" y="313" x="225" stroke-width="0" fill="#000000">19</text>
   <text stroke="#000000" transform="matrix(0.917431 0 0 0.991477 18.3486 1)" xml:space="preserve" text-anchor="start" font-family="Noto Sans JP" font-size="24" id="svg_60" y="315" x="318" stroke-width="0" fill="#000000">20</text>
  </g>
 </g>

</svg>